<svg xmlns="http://www.w3.org/2000/svg" version="1.1" xmlns:xlink="http://www.w3.org/1999/xlink" xmlns:svgjs="http://svgjs.dev/svgjs" width="1000" height="305" viewBox="0 0 1000 305"><g transform="matrix(1,0,0,1,-0.6056348047761162,0.5370436197051447)"><svg viewBox="0 0 396 121" data-background-color="#ffffff" preserveAspectRatio="xMidYMid meet" height="305" width="1000" xmlns="http://www.w3.org/2000/svg" xmlns:xlink="http://www.w3.org/1999/xlink"><g id="tight-bounds" transform="matrix(1,0,0,1,0.24008861730862918,-0.21305664912893008)"><svg viewBox="0 0 395.52 121.42588970458246" height="121.42588970458246" width="395.52"><g><svg viewBox="0 0 395.52 121.42588970458246" height="121.42588970458246" width="395.52"><g><svg viewBox="0 0 395.52 121.42588970458246" height="121.42588970458246" width="395.52"><g><svg viewBox="0 0 395.52 121.42588970458246" height="121.42588970458246" width="395.52"><g><svg viewBox="0 0 395.52 121.42588970458246" height="121.42588970458246" width="395.52"><path d="M394.594 26.044C392.735 13.44 387.435 9.936 387.435 9.936 371.165-3.046 350.86-0.248 332.619 1.617 300.414 1.693 268.339 4.466 236.208 5.953 168.767 6.18 100.749 2.449 33.643 11.65 27.339 14.473-6.54 12.204 1.121 27.657 3.129 34.085 10.456 41.219 10.232 47.117 11.236 48.151 12.631 45.781 13.226 47.269 15.309 51.277 18.711 49.386 21.501 51.756 17.614 58.083 20.403 63.351 23.062 68.872 18.377 70.309 12.371 69.628 9.675 74.392 9.396 77.846 7.89 77.19 6.235 77.039 5.026 76.938 2.59 77.316 2.999 78.4 4.394 82.106-1.594 84.249 2.162 87.879-0.422 91.811 3.948 95.214 3.353 99.474 3.278 100.331 3.687 101.062 4.338 101.264 7.22 102.348 3.018 104.465 3.464 106.759 33.029 122.439 65.104 111.599 95.394 118.809 103.259 113.767 97.346 120.598 100.489 119.54 102.943 118.305 104.728 123.422 107.499 120.523 107.927 119.691 107.276 117.725 108.8 118.103 109.6 118.305 110.307 118.254 110.418 117.095 110.586 115.355 109.117 116.439 108.726 115.532 112.947 110.944 111.906 121.859 115.866 121.405 115.68 120.069 114.528 118.153 116.889 118.405 119.232 116.49 119.306 114.901 121.389 119.212 121.463 120.145 121.835 120.8 122.43 121.254 128.938 116.565 135.409 122.918 142.233 120.8 146.417 118.481 150.433 122.061 154.672 121.178 156.16 120.472 157.666 119.212 159.098 121.33 176.632 121.783 195.319 119.893 211.943 121.405 256.364 118.582 303.835 122.565 350.674 118.834 361.719 117.397 373.192 115.355 383.958 113.717 383.958 113.717 392.679 109.23 392.679 89.063S394.538 71.418 394.817 55.36C395.096 39.303 396.398 38.647 394.538 26.044Z" opacity="1" fill="#50a060" data-fill-palette-color="tertiary"></path><g transform="matrix(1,0,0,1,55.76832,26.230666666666668)"><svg width="283.98335999999995" viewBox="1.9500000476837158 -34.20000076293945 143.29000854492188 34.79999923706055" height="68.96455637124912" data-palette-color="#ffffff"><path d="M22.35-32.2L22.35-33.4 32.5-33.4 32.5-32.25 28.4-30.9 15.45-18.6 31.85-1.75 35.85-1.4 35.85 0 21.35 0 21.35-1.4 24.9-1.7 11.45-16 11.45-1.65 15.8-1.2 15.8 0 1.95 0 1.95-1.2 6.3-1.65 6.3-31.75 1.95-32.2 1.95-33.4 15.8-33.4 15.8-32.2 11.45-31.75 11.45-17.45 25.9-31.1 22.35-32.2ZM68.45-16.8Q68.45-9.3 63.9-4.38 59.35 0.55 51.7 0.55 44.05 0.55 39.47-4.38 34.9-9.3 34.9-16.8 34.9-24.3 39.47-29.23 44.05-34.15 51.7-34.15 59.35-34.15 63.9-29.23 68.45-24.3 68.45-16.8ZM51.75-1L51.75-1Q62.35-1 62.35-16.8L62.35-16.8Q62.35-24.4 59.92-28.5 57.5-32.6 51.7-32.6 45.9-32.6 43.45-28.53 41-24.45 41-16.8L41-16.8Q41-1 51.75-1ZM93.7-26.05L92-31.75Q89.3-32.7 86.45-32.7 83.6-32.7 81.45-31.08 79.3-29.45 79.3-26.25L79.3-26.25Q79.3-23.15 81.95-21.5L81.95-21.5Q83.4-20.6 84.32-20.2 85.25-19.8 87.02-19.15 88.8-18.5 89.45-18.23 90.1-17.95 91.37-17.38 92.65-16.8 93.27-16.35 93.9-15.9 94.8-15.1 95.7-14.3 96.15-13.5L96.15-13.5Q97.25-11.45 97.25-9.05L97.25-9.05Q97.25-4.8 93.8-2.1 90.35 0.6 84.85 0.6L84.85 0.6Q80.65 0.6 77-0.8L77-0.8Q75.2-1.45 74.05-2.6 72.9-3.75 72.9-5.25L72.9-5.25Q72.9-7.7 76.45-8.6L76.45-8.6Q77-5.6 78.55-3.75 80.1-1.9 81.77-1.3 83.45-0.7 85.87-0.7 88.3-0.7 90.45-2.27 92.6-3.85 92.6-7.45L92.6-7.45Q92.6-10.2 90.1-11.95L90.1-11.95Q88.1-13.3 85.17-14.5 82.25-15.7 81.25-16.13 80.25-16.55 78.67-17.48 77.1-18.4 76.35-19.3L76.35-19.3Q74.4-21.65 74.4-24.7L74.4-24.7Q74.4-29.4 77.75-31.8 81.1-34.2 87-34.2L87-34.2Q90.55-34.2 95.25-33.4L95.25-33.4 95.25-26.05 93.7-26.05ZM115.19-1.2L115.19 0 101.34 0 101.34-1.2 105.69-1.65 105.69-31.75 101.34-32.2 101.34-33.4 115.19-33.4 115.19-32.2 110.84-31.75 110.84-1.65 115.19-1.2ZM144.64 0L119.09 0 119.09-1.2 123.44-1.65 123.44-31.75 119.09-32.3 119.09-33.4 143.04-33.4 143.09-26.3 141.79-26.3 140.09-31.6 128.59-31.75 128.59-18.3 138.69-18.3 140.24-22 141.24-22 141.24-12.7 140.19-12.7 138.69-16.5 128.59-16.5 128.59-1.6 141.59-1.75 143.94-7.45 145.24-7.45 144.64 0Z" opacity="1" transform="matrix(1,0,0,1,0,0)" fill="#ffffff" class="undefined-text-0" data-fill-palette-color="quaternary" id="text-0"></path></svg></g></svg></g></svg></g></svg></g><g></g></svg></g><defs></defs></svg><rect width="395.52" height="121.42588970458246" fill="none" stroke="none" visibility="hidden"></rect></g></svg></g></svg>